<svg width="32" height="32" viewBox="0 0 240 240" fill="none" xmlns="http://www.w3.org/2000/svg">
<rect x="34" y="33" width="176" height="175" fill="#848484"/>
<rect x="61.8999" y="25.2461" width="224.933" height="20" transform="rotate(49.1396 61.8999 25.2461)" fill="#C0C0C0"/>
<rect x="99.793" y="30.4717" width="171.56" height="10" transform="rotate(49.1396 99.793 30.4717)" fill="#C0C0C0"/>
<path fill-rule="evenodd" clip-rule="evenodd" d="M200 61C200 49.9543 191.046 41 180 41H61C49.9543 41 41 49.9543 41 61V180C41 191.046 49.9543 200 61 200H180C191.046 200 200 191.046 200 180V61ZM61 21C38.9086 21 21 38.9086 21 61V180C21 202.091 38.9086 220 61 220H180C202.091 220 220 202.091 220 180V61C220 38.9086 202.091 21 180 21H61Z" fill="black"/>
<rect x="77" y="5" width="18" height="16" fill="black"/>
<path d="M236 78L236 96L220 96L220 78L236 78Z" fill="black"/>
<rect x="77" y="220" width="18" height="16" fill="black"/>
<rect x="21" y="78" width="18" height="16" transform="rotate(90 21 78)" fill="black"/>
<rect x="111" y="5" width="18" height="16" fill="black"/>
<rect x="236" y="112" width="18" height="16" transform="rotate(90 236 112)" fill="black"/>
<rect x="111" y="220" width="18" height="16" fill="black"/>
<rect x="21" y="112" width="18" height="16" transform="rotate(90 21 112)" fill="black"/>
<rect x="145" y="5" width="18" height="16" fill="black"/>
<rect x="236" y="146" width="18" height="16" transform="rotate(90 236 146)" fill="black"/>
<rect x="145" y="220" width="18" height="16" fill="black"/>
<rect x="21" y="146" width="18" height="16" transform="rotate(90 21 146)" fill="black"/>
</svg>
