<svg width="32" height="32" viewBox="0 0 240 240" fill="none" xmlns="http://www.w3.org/2000/svg">
<rect x="34" y="36" width="175" height="173" fill="#E5E5DD"/>
<rect x="116.927" y="26.4814" width="157.551" height="10.5953" transform="rotate(49.1396 116.927 26.4814)" fill="white"/>
<rect x="80.2334" y="24.9424" width="205.305" height="21.1905" transform="rotate(49.1396 80.2334 24.9424)" fill="white"/>
<path d="M110.015 129.864L92.1156 111.965L78 126.081L110.015 158.096L161.995 106.116L147.879 92L110.015 129.864Z" fill="black"/>
<path fill-rule="evenodd" clip-rule="evenodd" d="M200 61C200 49.9543 191.046 41 180 41H61C49.9543 41 41 49.9543 41 61V180C41 191.046 49.9543 200 61 200H180C191.046 200 200 191.046 200 180V61ZM61 21C38.9086 21 21 38.9086 21 61V180C21 202.091 38.9086 220 61 220H180C202.091 220 220 202.091 220 180V61C220 38.9086 202.091 21 180 21H61Z" fill="black"/>
<path d="M71 19C71 13.4772 75.4772 9 81 9H160C165.523 9 170 13.4772 170 19V49C170 51.2091 168.209 53 166 53H75C72.7909 53 71 51.2091 71 49V19Z" fill="black"/>
</svg>
